<?xml version="1.0" encoding="utf-8"?><svg version="1.1" id="Layer_1" xmlns="http://www.w3.org/2000/svg" xmlns:xlink="http://www.w3.org/1999/xlink" x="0px" y="0px" viewBox="0 0 71.58 122.88" style="enable-background:new 0 0 71.58 122.88" xml:space="preserve"><style type="text/css">.st0{fill-rule:evenodd;clip-rule:evenodd;}</style><g><path class="st0" d="M12.72,0h46.14c3.5,0,6.71,1.44,9,3.72c2.32,2.32,3.72,5.49,3.72,9v97.43c0,3.5-1.44,6.71-3.72,9 c-2.32,2.32-5.49,3.72-9,3.72H12.72c-3.5,0-6.71-1.44-9-3.72c-2.32-2.32-3.72-5.49-3.72-9V12.72c0-3.5,1.44-6.71,3.72-9 C6.05,1.4,9.22,0,12.72,0L12.72,0z M35.79,70.99c1.72,0,3.12,1.39,3.12,3.12c0,1.72-1.39,3.12-3.12,3.12 c-1.72,0-3.12-1.39-3.12-3.12C32.67,72.4,34.06,70.99,35.79,70.99L35.79,70.99z M29.29,68.33l-0.01,0.01 c-0.02,0.02-0.04,0.03-0.06,0.04c-0.38,0.28-0.84,0.39-1.28,0.35c-0.47-0.05-0.92-0.27-1.24-0.67l0,0l0,0l-0.01-0.01l0,0l0,0 l-0.01-0.01c-0.02-0.02-0.03-0.04-0.04-0.06c-0.28-0.38-0.39-0.84-0.35-1.28c0.05-0.47,0.27-0.92,0.67-1.24l0,0l0,0l0.01-0.01 l0.02-0.01c1.37-1.11,2.8-1.96,4.27-2.53c1.5-0.58,3.03-0.88,4.57-0.89c1.52-0.01,3.05,0.28,4.54,0.85 c1.46,0.56,2.89,1.4,4.28,2.53c0.4,0.32,0.63,0.77,0.68,1.25c0.05,0.47-0.08,0.96-0.4,1.36c-0.32,0.4-0.77,0.63-1.25,0.68 c-0.47,0.05-0.96-0.08-1.36-0.4c-1.06-0.86-2.14-1.5-3.22-1.93c-1.08-0.43-2.17-0.64-3.25-0.64c-0.02,0-0.04,0-0.06,0 c-1.07,0.01-2.15,0.23-3.22,0.66c-1.1,0.43-2.18,1.08-3.22,1.92C29.32,68.31,29.3,68.32,29.29,68.33L29.29,68.33L29.29,68.33z M17.84,56.51c-0.38,0.3-0.85,0.43-1.3,0.39c-0.47-0.04-0.93-0.26-1.26-0.65l-0.01-0.01l0,0c-0.33-0.39-0.47-0.88-0.43-1.35 c0.04-0.47,0.26-0.93,0.65-1.26l0,0v0c3.09-2.65,6.38-4.65,9.79-5.99c3.43-1.35,6.99-2.02,10.57-1.99 c3.53,0.03,7.07,0.75,10.53,2.17c3.36,1.38,6.64,3.43,9.76,6.16l0.01,0l0,0c0.01,0.01,0.02,0.02,0.03,0.03l0,0l0,0l0,0 c0.36,0.34,0.56,0.78,0.59,1.24c0.03,0.48-0.12,0.96-0.46,1.35l0,0l-0.03,0.03h0h0l0,0l0,0c-0.34,0.36-0.78,0.56-1.24,0.59 c-0.48,0.03-0.96-0.12-1.35-0.46c-0.01-0.01-0.02-0.02-0.03-0.03l0,0l0,0v0l-0.01-0.01c-2.78-2.42-5.68-4.23-8.63-5.45 c-3.04-1.26-6.13-1.89-9.19-1.92c-3.1-0.03-6.2,0.56-9.22,1.75c-2.98,1.18-5.87,2.94-8.59,5.26 C17.94,56.42,17.89,56.47,17.84,56.51L17.84,56.51z M23.75,62.74c-0.38,0.34-0.86,0.49-1.34,0.46c-0.47-0.03-0.94-0.23-1.28-0.61 l-0.01-0.01l0,0c-0.34-0.38-0.49-0.87-0.46-1.34c0.03-0.47,0.23-0.94,0.61-1.28l0.01-0.01l0,0c2.32-2.06,4.72-3.61,7.16-4.64 c2.45-1.03,4.94-1.54,7.46-1.49c2.48,0.04,4.96,0.62,7.41,1.75c2.38,1.1,4.72,2.71,7.02,4.87c0.37,0.35,0.57,0.82,0.58,1.3 c0.02,0.48-0.15,0.96-0.5,1.33c-0.35,0.37-0.82,0.57-1.3,0.59c-0.48,0.02-0.96-0.15-1.33-0.5c-1.97-1.86-3.95-3.24-5.94-4.17 c-2.01-0.94-4.02-1.41-6.01-1.45c-2.02-0.03-4.04,0.39-6.04,1.24C27.75,59.66,25.73,60.98,23.75,62.74L23.75,62.74L23.75,62.74z M35.77,107.24c2.88,0,5.24,2.32,5.24,5.24c0,2.88-2.32,5.24-5.24,5.24c-2.88,0-5.24-2.32-5.24-5.24 C30.54,109.6,32.86,107.24,35.77,107.24L35.77,107.24z M3.61,103.26h64.32V14.62H3.61V103.26L3.61,103.26z"/></g></svg>