<?xml version="1.0" encoding="UTF-8" standalone="no" ?>
<!DOCTYPE svg PUBLIC "-//W3C//DTD SVG 1.1//EN" "http://www.w3.org/Graphics/SVG/1.1/DTD/svg11.dtd">
<svg xmlns="http://www.w3.org/2000/svg" xmlns:xlink="http://www.w3.org/1999/xlink" version="1.1" width="1080" height="1080" viewBox="0 0 1080 1080" xml:space="preserve">
<desc>Created with Fabric.js 5.2.4</desc>
<defs>
</defs>
<rect x="0" y="0" width="100%" height="100%" fill="transparent"></rect>
<g transform="matrix(1 0 0 1 540 540)" id="1ba3b0db-b6ac-4469-9c74-4f32850711db"  >
<rect style="stroke: none; stroke-width: 1; stroke-dasharray: none; stroke-linecap: butt; stroke-dashoffset: 0; stroke-linejoin: miter; stroke-miterlimit: 4; fill: rgb(255,255,255); fill-rule: nonzero; opacity: 1; visibility: hidden;" vector-effect="non-scaling-stroke"  x="-540" y="-540" rx="0" ry="0" width="1080" height="1080" />
</g>
<g transform="matrix(Infinity NaN NaN Infinity 0 0)" id="b8880f8b-9c99-40db-8dd7-16aff620ac08"  >
</g>
<g transform="matrix(1 0 0 1 540 540)"  >
<g style="" vector-effect="non-scaling-stroke"   >
		<g transform="matrix(2.81 0 0 2.81 44.65 26.85)"  >
<path style="stroke: none; stroke-width: 1; stroke-dasharray: none; stroke-linecap: butt; stroke-dashoffset: 0; stroke-linejoin: miter; stroke-miterlimit: 10; fill: rgb(0,0,0); fill-rule: nonzero; opacity: 1;" vector-effect="non-scaling-stroke"  transform=" translate(-60.89, -54.56)" d="M 69.131 75.433 C 68.508 75.433 67.879 75.31200000000001 67.277 75.063 C 65.464 74.313 64.293 72.56 64.293 70.599 L 64.293 67.11 L 34.779 67.11 C 33.122 67.11 31.779000000000003 65.767 31.779000000000003 64.11 C 31.779000000000003 62.453 33.122 61.11 34.779 61.11 L 65.46300000000001 61.11 C 68.12700000000001 61.11 70.29400000000001 63.278 70.29400000000001 65.942 L 70.29400000000001 67.779 L 83.51800000000001 54.55499999999999 L 70.294 41.332 L 70.294 43.169000000000004 C 70.294 45.833000000000006 68.127 48.001000000000005 65.463 48.001000000000005 L 47.124 48.001000000000005 C 45.467 48.001000000000005 44.124 46.658 44.124 45.001000000000005 C 44.124 43.34400000000001 45.467 42.001000000000005 47.124 42.001000000000005 L 64.29400000000001 42.001000000000005 L 64.29400000000001 38.51200000000001 C 64.29400000000001 36.550000000000004 65.46500000000002 34.79800000000001 67.278 34.04700000000001 C 69.09200000000001 33.29700000000001 71.15700000000001 33.70800000000001 72.54400000000001 35.09600000000001 L 88.58800000000001 51.140000000000015 C 90.47200000000001 53.024000000000015 90.47200000000001 56.088000000000015 88.58800000000001 57.972000000000016 L 72.542 74.016 C 71.617 74.943 70.386 75.433 69.131 75.433 z" stroke-linecap="round" />
</g>
		<g transform="matrix(2.81 0 0 2.81 -44.65 -26.85)"  >
<path style="stroke: none; stroke-width: 1; stroke-dasharray: none; stroke-linecap: butt; stroke-dashoffset: 0; stroke-linejoin: miter; stroke-miterlimit: 10; fill: rgb(0,0,0); fill-rule: nonzero; opacity: 1;" vector-effect="non-scaling-stroke"  transform=" translate(-29.11, -35.45)" d="M 20.869 56.323 C 19.614 56.323 18.384999999999998 55.833 17.458 54.907000000000004 L 1.413 38.862 C -0.47099999999999986 36.978 -0.47099999999999986 33.913000000000004 1.413 32.029 L 17.457 15.985000000000003 C 18.843 14.599000000000004 20.911 14.187000000000003 22.722 14.938000000000002 C 24.535 15.688000000000002 25.706000000000003 17.441000000000003 25.706000000000003 19.402 L 25.706000000000003 22.891000000000002 L 55.221000000000004 22.891000000000002 C 56.878 22.891000000000002 58.221000000000004 24.234 58.221000000000004 25.891000000000002 C 58.221000000000004 27.548000000000002 56.878 28.891000000000002 55.221000000000004 28.891000000000002 L 24.538 28.891000000000002 C 21.874 28.891000000000002 19.706 26.723000000000003 19.706 24.059 L 19.706 22.222 L 6.482 35.445 L 19.706 48.669 L 19.706 46.831999999999994 C 19.706 44.166999999999994 21.874 41.99999999999999 24.538 41.99999999999999 L 47.125 41.99999999999999 C 48.782 41.99999999999999 50.125 43.34299999999999 50.125 44.99999999999999 C 50.125 46.657 48.782 47.99999999999999 47.125 47.99999999999999 L 25.706 47.99999999999999 L 25.706 51.48799999999999 C 25.706 53.44899999999999 24.535 55.20099999999999 22.723 55.95199999999999 C 22.122 56.202 21.492 56.323 20.869 56.323 z" stroke-linecap="round" />
</g>
</g>
</g>
</svg>